<?xml version="1.0" encoding="UTF-8" standalone="no"?><!DOCTYPE svg PUBLIC "-//W3C//DTD SVG 1.1//EN" "http://www.w3.org/Graphics/SVG/1.1/DTD/svg11.dtd"><svg width="100%" height="100%" viewBox="0 0 543 644" version="1.1" xmlns="http://www.w3.org/2000/svg" xmlns:xlink="http://www.w3.org/1999/xlink" xml:space="preserve" xmlns:serif="http://www.serif.com/" style="fill-rule:evenodd;clip-rule:evenodd;stroke-linejoin:round;stroke-miterlimit:2;"><rect id="ArtBoard1" x="0" y="0" width="542.154" height="643.339" style="fill:none;"/><g id="Ebene1"><path d="M368.727,234.53c91.427,-0 171.668,80.011 167.902,156.207c-2.248,45.471 -30.255,84.769 -80.753,99.886c-43.52,13.028 -90.944,9.369 -136.596,1.255c-87.281,-15.512 -108.537,-55.194 -111.711,-131.483c-3.171,-76.22 83.217,-125.865 161.158,-125.865Z"/><path d="M198.782,215.71c-22.695,-12.349 -48.558,-18.826 -74.093,-22.76c-30.155,-4.646 -66.617,-4.482 -85.83,-5.774c-21.264,-1.431 -29.616,0.5 -29.616,0.5c-0,-0 2.593,9.372 5.309,15.864c3.362,8.035 10.191,17.112 15.383,23.685c7.342,9.295 29.136,31.452 29.136,31.452c9.639,10.255 65.193,49.638 91.077,60.433c19.804,8.26 64.226,4.337 64.226,4.337c11.009,-0 47.137,-45.037 47.137,-56.046c-0,-0 -39.926,-39.282 -62.729,-51.691Z"/><path d="M467.634,484.929c-0,-12.375 -52.703,-15.365 -65.078,-15.365l-48.529,-1.841c-12.375,0 -65.691,-2.227 -65.691,10.148c-0,0 -32.517,47.569 -37.577,80.51c-1.231,8.013 -1.366,16.771 -0,23.08c4.555,21.038 19.272,44.164 31.53,42.632l166.604,1.227c12.376,0 17.82,-28.46 17.82,-40.835l0.921,-99.556Z"/><path d="M510.686,200.335c6.196,-25.083 10.069,-43.732 4.631,-83.501c-4.133,-30.229 -15.891,-61.533 -20.445,-80.244c-5.041,-20.707 -11.546,-29.931 -11.546,-29.931c0,-0 -8.156,5.295 -13.528,9.841c-6.649,5.626 -13.248,14.872 -17.952,21.803c-6.651,9.8 -15.864,24.004 -21.215,37.255c-10.571,26.173 -19.456,77.117 -21.954,105.05c-1.911,21.373 5.382,57.444 5.382,57.444c10.317,-0.432 56.313,22.94 60.928,30.925c-0,0 27.739,-36.417 35.699,-68.642Z"/><path d="M450.922,622.46l-50.257,1.407c-0,0 4.246,11.152 9.251,12.508c7.756,2.101 23.377,1.563 31.152,0.703c3.557,-0.393 13.972,-2.416 14.592,-4.752c0.62,-2.336 -4.738,-9.866 -4.738,-9.866Z"/><path d="M335.289,623.591l-56.165,-1.131c-0,-0 0.966,14.022 5.972,15.378c7.756,2.101 23.572,2.241 31.347,1.382c3.558,-0.393 13.799,-1.293 15.676,-3.629c1.514,-1.884 3.17,-12 3.17,-12Z"/><path d="M226.014,388.762l-166.255,-96.616l-36.441,105.007l164.507,79.594l38.189,-87.985Z"/><path d="M226.014,490.489l-102.054,-50.729l-20.739,49.64l114.24,55.455l8.553,-54.366Z"/><path d="M249.73,550.214l-85.112,-36.685l-0,51.078l86.141,27.611c-4.101,-7.917 -4.923,-32.481 -1.029,-42.004Z"/><ellipse cx="350.351" cy="386.829" rx="27.87" ry="28.17"/><path d="M344.569,349.917c18.046,-3.598 35.887,9.481 39.816,29.189c3.93,19.708 -7.532,38.63 -25.578,42.227c-18.046,3.598 -35.888,-9.481 -39.817,-29.189c-3.929,-19.708 7.532,-38.629 25.579,-42.227Z" style="fill:#fff;"/><path d="M474.653,336.829c16.655,-3.32 33.366,9.984 37.295,29.692c3.93,19.708 -6.402,38.404 -23.056,41.725c-16.655,3.32 -33.366,-9.984 -37.295,-29.692c-3.929,-19.708 6.402,-38.404 23.056,-41.725Z" style="fill:#fff;"/><path d="M292.222,409.396c19.459,2.078 40.449,21.766 38.335,41.234c-1.918,17.664 -24.998,26.37 -42.171,24.452c-19.449,-2.173 -31.622,-13.981 -31.622,-33.563c-0,-19.582 13.011,-34.521 35.458,-32.123Z" style="fill:#fff;"/><path d="M524.795,398.844c10.264,1.181 2.993,19.394 -3.579,33.703c-7.672,16.705 -20.16,24.314 -28.547,21.437c-12.015,-4.121 -6.712,-14.701 1.439,-29.008c7.794,-13.681 18.068,-27.584 30.687,-26.132Z" style="fill:#fff;"/><g id="Ebene2"><path d="M345.488,355.734c15.265,-3.043 30.435,8.419 33.857,25.581c3.421,17.161 -6.194,33.565 -21.458,36.608c-15.264,3.043 -30.435,-8.419 -33.857,-25.58c-3.421,-17.162 6.194,-33.565 21.458,-36.609Z"/><ellipse cx="335.831" cy="374.195" rx="5.831" ry="5.677" style="fill:#fff;"/><path d="M475.983,341.443c14.256,-3.043 28.424,8.419 31.62,25.58c3.195,17.162 -5.785,33.565 -20.041,36.609c-14.256,3.043 -28.424,-8.419 -31.619,-25.581c-3.196,-17.161 5.784,-33.565 20.04,-36.608Z"/><ellipse cx="466.964" cy="359.904" rx="5.445" ry="5.677" style="fill:#fff;"/></g></g></svg>